<svg width="800" height="500" viewBox="0 0 800 500" fill="none" xmlns="http://www.w3.org/2000/svg">
  <!-- Background -->
  <rect width="800" height="500" fill="#F9FAFB"/>
  
  <!-- Dashboard header -->
  <rect y="0" width="800" height="60" fill="#1E40AF"/>
  <rect x="20" y="15" width="30" height="30" rx="6" fill="white"/>
  <text x="60" y="37" font-family="Arial" font-size="22" font-weight="bold" fill="white">LetterFlow</text>
  
  <!-- Sidebar -->
  <rect x="0" y="60" width="200" height="440" fill="#FFFFFF"/>
  <rect x="0" y="60" width="200" height="440" stroke="#E5E7EB" stroke-width="1"/>
  
  <!-- Sidebar menu items -->
  <rect x="20" y="100" width="160" height="40" rx="6" fill="#EFF6FF"/>
  <circle cx="40" cy="120" r="8" fill="#3B82F6"/>
  <rect x="60" y="115" width="80" height="10" rx="2" fill="#3B82F6"/>
  
  <circle cx="40" cy="170" r="8" fill="#9CA3AF"/>
  <rect x="60" y="165" width="100" height="10" rx="2" fill="#9CA3AF"/>
  
  <circle cx="40" cy="220" r="8" fill="#9CA3AF"/>
  <rect x="60" y="215" width="80" height="10" rx="2" fill="#9CA3AF"/>
  
  <circle cx="40" cy="270" r="8" fill="#9CA3AF"/>
  <rect x="60" y="265" width="100" height="10" rx="2" fill="#9CA3AF"/>
  
  <circle cx="40" cy="320" r="8" fill="#9CA3AF"/>
  <rect x="60" y="315" width="60" height="10" rx="2" fill="#9CA3AF"/>
  
  <!-- Main content -->
  <rect x="220" y="80" width="560" height="50" rx="6" fill="#FFFFFF"/>
  <rect x="220" y="80" width="560" height="50" stroke="#E5E7EB" stroke-width="1"/>
  <text x="240" y="112" font-family="Arial" font-size="20" font-weight="bold" fill="#111827">Dashboard</text>
  
  <!-- Stats cards -->
  <rect x="220" y="150" width="175" height="120" rx="8" fill="#FFFFFF" stroke="#E5E7EB" stroke-width="1"/>
  <circle cx="250" cy="180" r="15" fill="#DBEAFE"/>
  <circle cx="250" cy="180" r="8" fill="#3B82F6"/>
  <text x="280" y="175" font-family="Arial" font-size="14" font-weight="bold" fill="#111827">Properties</text>
  <text x="280" y="195" font-family="Arial" font-size="10" fill="#6B7280">Total properties</text>
  <text x="250" y="225" font-family="Arial" font-size="24" font-weight="bold" fill="#111827" text-anchor="middle">256</text>
  
  <rect x="410" y="150" width="175" height="120" rx="8" fill="#FFFFFF" stroke="#E5E7EB" stroke-width="1"/>
  <circle cx="440" cy="180" r="15" fill="#DCFCE7"/>
  <circle cx="440" cy="180" r="8" fill="#22C55E"/>
  <text x="470" y="175" font-family="Arial" font-size="14" font-weight="bold" fill="#111827">Letters Sent</text>
  <text x="470" y="195" font-family="Arial" font-size="10" fill="#6B7280">This month</text>
  <text x="440" y="225" font-family="Arial" font-size="24" font-weight="bold" fill="#111827" text-anchor="middle">124</text>
  
  <rect x="600" y="150" width="175" height="120" rx="8" fill="#FFFFFF" stroke="#E5E7EB" stroke-width="1"/>
  <circle cx="630" cy="180" r="15" fill="#F0F9FF"/>
  <circle cx="630" cy="180" r="8" fill="#0EA5E9"/>
  <text x="660" y="175" font-family="Arial" font-size="14" font-weight="bold" fill="#111827">Response Rate</text>
  <text x="660" y="195" font-family="Arial" font-size="10" fill="#6B7280">Average</text>
  <text x="630" y="225" font-family="Arial" font-size="24" font-weight="bold" fill="#111827" text-anchor="middle">5.8%</text>
  
  <!-- Neighborhoods section -->
  <rect x="220" y="290" width="270" height="190" rx="8" fill="#FFFFFF" stroke="#E5E7EB" stroke-width="1"/>
  <text x="240" y="320" font-family="Arial" font-size="16" font-weight="bold" fill="#111827">Recent Neighborhoods</text>
  
  <rect x="240" y="340" width="230" height="1" fill="#E5E7EB"/>
  
  <circle cx="255" cy="360" r="8" fill="#3B82F6"/>
  <rect x="275" y="355" width="100" height="10" rx="2" fill="#111827"/>
  <rect x="275" y="370" width="60" height="8" rx="2" fill="#6B7280"/>
  
  <rect x="240" y="390" width="230" height="1" fill="#E5E7EB"/>
  
  <circle cx="255" cy="410" r="8" fill="#22C55E"/>
  <rect x="275" y="405" width="80" height="10" rx="2" fill="#111827"/>
  <rect x="275" y="420" width="70" height="8" rx="2" fill="#6B7280"/>
  
  <rect x="240" y="440" width="230" height="1" fill="#E5E7EB"/>
  
  <circle cx="255" cy="460" r="8" fill="#F59E0B"/>
  <rect x="275" y="455" width="90" height="10" rx="2" fill="#111827"/>
  <rect x="275" y="470" width="50" height="8" rx="2" fill="#6B7280"/>
  
  <!-- Activity section -->
  <rect x="505" y="290" width="270" height="190" rx="8" fill="#FFFFFF" stroke="#E5E7EB" stroke-width="1"/>
  <text x="525" y="320" font-family="Arial" font-size="16" font-weight="bold" fill="#111827">Recent Activity</text>
  
  <rect x="525" y="340" width="230" height="1" fill="#E5E7EB"/>
  
  <circle cx="540" cy="360" r="8" fill="#3B82F6"/>
  <rect x="560" y="355" width="150" height="10" rx="2" fill="#111827"/>
  <rect x="560" y="370" width="80" height="8" rx="2" fill="#6B7280"/>
  
  <rect x="525" y="390" width="230" height="1" fill="#E5E7EB"/>
  
  <circle cx="540" cy="410" r="8" fill="#EC4899"/>
  <rect x="560" y="405" width="130" height="10" rx="2" fill="#111827"/>
  <rect x="560" y="420" width="70" height="8" rx="2" fill="#6B7280"/>
  
  <rect x="525" y="440" width="230" height="1" fill="#E5E7EB"/>
  
  <circle cx="540" cy="460" r="8" fill="#8B5CF6"/>
  <rect x="560" y="455" width="140" height="10" rx="2" fill="#111827"/>
  <rect x="560" y="470" width="60" height="8" rx="2" fill="#6B7280"/>
  
  <!-- LetterFlow watermark -->
  <text x="400" y="490" font-family="Arial" font-size="14" fill="#9CA3AF" text-anchor="middle">LetterFlow Dashboard Preview</text>
</svg> 